<svg height="40" viewBox="0 0 262 70" fill="none"
    xmlns="http://www.w3.org/2000/svg">
    <path d="M17.3681 56.3279H38.8722V68.9999H0.952148V1.60795H17.3681V56.3279ZM78.5741 69.6719C72.2381 69.6719 66.4141 68.1999 61.1021 65.2559C55.8541 62.3119 51.6621 58.2159 48.5261 52.9679C45.4541 47.6559 43.9181 41.7039 43.9181 35.1119C43.9181 28.5199 45.4541 22.5999 48.5261 17.3519C51.6621 12.1039 55.8541 8.00795 61.1021 5.06395C66.4141 2.11995 72.2381 0.647949 78.5741 0.647949C84.9101 0.647949 90.7021 2.11995 95.9501 5.06395C101.262 8.00795 105.422 12.1039 108.43 17.3519C111.502 22.5999 113.038 28.5199 113.038 35.1119C113.038 41.7039 111.502 47.6559 108.43 52.9679C105.358 58.2159 101.198 62.3119 95.9501 65.2559C90.7021 68.1999 84.9101 69.6719 78.5741 69.6719ZM78.5741 54.6959C83.9501 54.6959 88.2381 52.904 91.4381 49.32C94.7021 45.7359 96.3341 40.9999 96.3341 35.1119C96.3341 29.1599 94.7021 24.4239 91.4381 20.9039C88.2381 17.3199 83.9501 15.528 78.5741 15.528C73.1341 15.528 68.7821 17.288 65.5181 20.808C62.3181 24.328 60.7181 29.096 60.7181 35.1119C60.7181 41.064 62.3181 45.832 65.5181 49.416C68.7821 52.936 73.1341 54.6959 78.5741 54.6959ZM166.907 22.92C165.691 20.68 163.931 18.984 161.627 17.832C159.387 16.616 156.731 16.0079 153.659 16.0079C148.347 16.0079 144.091 17.768 140.891 21.288C137.691 24.744 136.091 29.384 136.091 35.208C136.091 41.416 137.755 46.2799 141.083 49.7999C144.475 53.2559 149.115 54.984 155.003 54.984C159.035 54.984 162.427 53.9599 165.179 51.9119C167.995 49.8639 170.043 46.92 171.323 43.08H150.491V30.9839H186.203V46.248C184.987 50.344 182.907 54.152 179.963 57.672C177.083 61.192 173.403 64.0399 168.923 66.216C164.443 68.392 159.387 69.4799 153.755 69.4799C147.099 69.4799 141.147 68.04 135.899 65.16C130.715 62.216 126.651 58.1519 123.707 52.9679C120.827 47.7839 119.387 41.864 119.387 35.208C119.387 28.552 120.827 22.632 123.707 17.448C126.651 12.2 130.715 8.13595 135.899 5.25595C141.083 2.31195 147.003 0.839946 153.659 0.839946C161.723 0.839946 168.507 2.79195 174.011 6.69595C179.579 10.6 183.259 16.008 185.051 22.92H166.907ZM227.168 69.6719C220.832 69.6719 215.008 68.1999 209.696 65.2559C204.448 62.3119 200.256 58.2159 197.12 52.9679C194.048 47.6559 192.512 41.7039 192.512 35.1119C192.512 28.5199 194.048 22.5999 197.12 17.3519C200.256 12.1039 204.448 8.00795 209.696 5.06395C215.008 2.11995 220.832 0.647949 227.168 0.647949C233.504 0.647949 239.296 2.11995 244.544 5.06395C249.856 8.00795 254.016 12.1039 257.024 17.3519C260.096 22.5999 261.632 28.5199 261.632 35.1119C261.632 41.7039 260.096 47.6559 257.024 52.9679C253.952 58.2159 249.792 62.3119 244.544 65.2559C239.296 68.1999 233.504 69.6719 227.168 69.6719ZM227.168 54.6959C232.544 54.6959 236.832 52.904 240.032 49.32C243.296 45.7359 244.928 40.9999 244.928 35.1119C244.928 29.1599 243.296 24.4239 240.032 20.9039C236.832 17.3199 232.544 15.528 227.168 15.528C221.728 15.528 217.376 17.288 214.112 20.808C210.912 24.328 209.312 29.096 209.312 35.1119C209.312 41.064 210.912 45.832 214.112 49.416C217.376 52.936 221.728 54.6959 227.168 54.6959Z" fill="var(--text-primary)"/>
</svg>
